HIERARCHY
ROOT RootJoint
{
    OFFSET   0.000000   0.000000   0.000000
    CHANNELS 6 Xposition Yposition Zposition Xrotation Yrotation Zrotation
    JOINT pelvis_lowerback
    {
        OFFSET   0.000000   0.093605   0.000000
        CHANNELS 3 Xrotation Yrotation Zrotation
        JOINT lowerback_torso
        {
            OFFSET   0.000000   0.100000   0.000000
            CHANNELS 3 Xrotation Yrotation Zrotation
            JOINT torso_head
            {
                OFFSET   0.000000   0.282350   0.000000
                CHANNELS 3 Xrotation Yrotation Zrotation
                End Site
                {
                    OFFSET   0.000000   0.192650   0.000000
                }
            }
            JOINT rTorso_Clavicle
            {
                OFFSET  -0.001000   0.157500   0.000000
                CHANNELS 3 Xrotation Yrotation Zrotation
                JOINT rShoulder
                {
                    OFFSET  -0.117647   0.000000   0.000000
                    CHANNELS 3 Xrotation Yrotation Zrotation
                    JOINT rElbow
                    {
                        OFFSET  -0.245000   0.000000   0.000000
                        CHANNELS 3 Xrotation Yrotation Zrotation
                        JOINT rWrist
                        {
                            OFFSET  -0.240000   0.000000   0.000000
                            CHANNELS 3 Xrotation Yrotation Zrotation
                            End Site
                            {
                                OFFSET  -0.116353  -0.002500   0.000000
                            }
                        }
                    }
                }
            }
            JOINT lTorso_Clavicle
            {
                OFFSET   0.001000   0.157500   0.000000
                CHANNELS 3 Xrotation Yrotation Zrotation
                JOINT lShoulder
                {
                    OFFSET   0.117647   0.000000   0.000000
                    CHANNELS 3 Xrotation Yrotation Zrotation
                    JOINT lElbow
                    {
                        OFFSET   0.245000   0.000000   0.000000
                        CHANNELS 3 Xrotation Yrotation Zrotation
                        JOINT lWrist
                        {
                            OFFSET   0.240000   0.000000   0.000000
                            CHANNELS 3 Xrotation Yrotation Zrotation
                            End Site
                            {
                                OFFSET   0.116353  -0.002500   0.000000
                            }
                        }
                    }
                }
            }
        }
    }
    JOINT rHip
    {
        OFFSET  -0.100000  -0.051395   0.000000
        CHANNELS 3 Xrotation Yrotation Zrotation
        JOINT rKnee
        {
            OFFSET   0.000000  -0.410000   0.000000
            CHANNELS 3 Xrotation Yrotation Zrotation
            JOINT rAnkle
            {
                OFFSET   0.000000  -0.390000   0.000000
                CHANNELS 3 Xrotation Yrotation Zrotation
                JOINT rToeJoint
                {
                    OFFSET   0.000000  -0.050000   0.130000
                    CHANNELS 3 Xrotation Yrotation Zrotation
                    End Site
                    {
                        OFFSET  -0.010000   0.002000   0.060000
                    }
                }
            }
        }
    }
    JOINT lHip
    {
        OFFSET   0.100000  -0.051395   0.000000
        CHANNELS 3 Xrotation Yrotation Zrotation
        JOINT lKnee
        {
            OFFSET   0.000000  -0.410000   0.000000
            CHANNELS 3 Xrotation Yrotation Zrotation
            JOINT lAnkle
            {
                OFFSET   0.000000  -0.390000   0.000000
                CHANNELS 3 Xrotation Yrotation Zrotation
                JOINT lToeJoint
                {
                    OFFSET   0.000000  -0.050000   0.130000
                    CHANNELS 3 Xrotation Yrotation Zrotation
                    End Site
                    {
                        OFFSET   0.010000   0.002000   0.060000
                    }
                }
            }
        }
    }
}
MOTION
Frames: 7
Frame Time:   0.008333
 -3.206359   0.891737   5.793501 -13.569512   7.388727   4.162641   4.326206  -1.148353  -2.148813   1.493112  -0.178943  -2.435906   0.726534   2.340458   0.339111   4.819690  -5.499807   0.761942  14.736986   5.799058  56.480121  -0.008270  66.818996   0.008394   0.726755   1.755973  -4.349530   3.742529  -0.140602  -3.767848   2.168967  -9.952736 -51.715379 179.992168 -85.152458 179.992723  -3.112153  -3.329789   5.516809 -12.737734   0.131969 -13.575910  51.435460  -0.049868  -0.033584  -6.172835 -11.075991   2.062575  -4.333517   0.003016   0.004243   6.605501  -5.326638  -4.533434  26.250838   0.001542  -0.003215 -19.959856  -2.832395   6.542868   0.334132  -0.000009   0.000000
 -3.209218   0.892557   5.796952 -13.476218   7.939161   3.960624   4.155916  -1.267879  -2.090412   1.550472  -0.393058  -2.392214   0.663079   2.363834   0.247065   4.943805  -5.644956   0.728308  15.214412   5.687663  56.531969  -0.007644  66.504834   0.008106   0.724010   1.770518  -4.200454   3.833801   0.014716  -3.622236   2.383445 -10.025441 -51.661659 179.993206 -85.244740 179.993657  -3.051583  -3.275707   5.486120 -12.375672   0.270821 -13.444948  48.933624  -0.051105  -0.041184  -5.833633 -10.742896   2.147697  -4.260006   0.002431   0.004040   6.813689  -5.583767  -3.938825  25.999729   0.001590  -0.003420 -19.999339  -3.145617   6.232711   0.308014  -0.000014   0.000001
 -3.212182   0.893369   5.800416 -13.336498   8.631321   3.787553   3.946658  -1.408473  -2.071956   1.573671  -0.635248  -2.362182   0.595012   2.384794   0.156197   5.088535  -5.808413   0.692007  15.688838   5.568035  56.582253  -0.007145  66.200358   0.008047   0.717242   1.726207  -4.034887   3.910964   0.147854  -3.465749   2.578471 -10.105083 -51.604319 179.993403 -85.322441 179.993776  -2.990044  -3.251843   5.387204 -11.939138   0.390693 -13.329130  46.542689  -0.052193  -0.049811  -5.514658 -10.428320   2.225794  -4.153377   0.002034   0.004301   6.962029  -5.746365  -3.347880  25.760625   0.001430  -0.003991 -20.023891  -3.363971   5.932952   0.256605  -0.000026  -0.000144
 -3.215228   0.894151   5.803833 -13.162887   9.399292   3.638693   3.727432  -1.548220  -2.078734   1.572967  -0.876727  -2.350861   0.526070   2.404860   0.067956   5.234045  -5.973654   0.652284  16.142401   5.448598  56.627641  -0.006753  65.912001   0.008145   0.708703   1.652719  -3.876961   3.972773   0.266274  -3.312160   2.752100 -10.182938 -51.546705 179.993088 -85.391197 179.993409  -2.928397  -3.254017   5.289353 -11.477551   0.501432 -13.227156  44.322797  -0.051941  -0.057341  -5.217368 -10.134342   2.295719  -4.054239   0.001749   0.004494   7.065545  -5.881115  -2.769242  25.511706   0.001237  -0.004705 -20.046960  -3.554104   5.659528   0.226041  -0.000021  -0.000235
 -3.218339   0.894897   5.807182 -12.963990  10.210350   3.508850   3.510362  -1.678374  -2.102527   1.558364  -1.105826  -2.355062   0.458937   2.424112  -0.016895   5.371281  -6.131627   0.608795  16.567763   5.333999  56.667161  -0.006453  65.641891   0.008335   0.700066   1.571617  -3.732696   4.023516   0.373817  -3.165981   2.908296 -10.257136 -51.491078 179.992541 -85.453294 179.992829  -2.867745  -3.272689   5.206124 -11.008077   0.601101 -13.135187  42.271544  -0.050309  -0.063076  -4.939904  -9.859709   2.358515  -3.964002   0.001527   0.004580   7.132009  -5.999952  -2.205351  25.252808   0.001051  -0.005459 -20.067975  -3.724811   5.407187   0.217166  -0.000016  -0.000229
 -3.221506   0.895603   5.810454 -12.745297  11.046217   3.395139   3.301544  -1.795250  -2.138866   1.536065  -1.317583  -2.371485   0.394903   2.442525  -0.097858   5.496610  -6.278392   0.562138  16.962678   5.226451  56.701097  -0.006225  65.390524   0.008561   0.692178   1.494804  -3.602459   4.066893   0.473043  -3.028527   3.050766 -10.326901 -51.438291 179.991924 -85.510132 179.992193  -2.808778  -3.300482   5.136193 -10.538897   0.688881 -13.050393  40.376351  -0.047605  -0.066937  -4.680832  -9.603157   2.415071  -3.881982   0.001341   0.004567   7.165710  -6.106923  -1.658298  24.986437   0.000886  -0.006190 -20.085971  -3.879199   5.173875   0.226943  -0.000016  -0.000134
 -3.224753   0.895835   5.813610 -12.483668  11.899069   3.215895   3.098332  -1.897408  -2.125367   1.500733  -1.509603  -2.369660   0.332936   2.460125  -0.172314   5.606935  -6.412426   0.480985  17.326315   5.124272  56.718674  -0.005950  65.163943   0.008716   0.686133   1.452056  -3.493297   4.098861   0.563742  -2.882443   3.175654 -10.396943 -51.389687 179.991795 -85.552432 179.992034  -2.749879  -3.364086   5.077186 -10.113353   0.760890 -12.906565  38.635819  -0.044323  -0.068996  -4.439523  -9.362900   2.466539  -3.814142   0.001178   0.004401   7.198076  -6.245163  -1.068400  24.673902   0.000763  -0.007009 -19.866198  -4.068788   5.025173  -1.859160   0.001959  -0.009130
